HIERARCHY
ROOT Bip01
{
  OFFSET 15.7446 31.5610 57.6474
  CHANNELS 6 Xposition Yposition Zposition Zrotation Xrotation Yrotation
  JOINT Bip01_Footsteps
  {
    OFFSET 53.2821 -0.0001 8.1953
    CHANNELS 6 Xposition Yposition Zposition Zrotation Xrotation Yrotation
    End Site
    {
      OFFSET 0 0 0
    }
  }
  JOINT b_Hips
  {
    OFFSET 0.0000 0.0000 0.0000
    CHANNELS 6 Xposition Yposition Zposition Zrotation Xrotation Yrotation
    JOINT b_Spine
    {
      OFFSET 10.4409 -1.6220 0.0000
      CHANNELS 6 Xposition Yposition Zposition Zrotation Xrotation Yrotation
      JOINT b_Spine1
      {
        OFFSET 8.8514 -0.0090 0.0000
        CHANNELS 6 Xposition Yposition Zposition Zrotation Xrotation Yrotation
        JOINT b_Spine2
        {
          OFFSET 11.3035 -0.0088 -0.0000
          CHANNELS 6 Xposition Yposition Zposition Zrotation Xrotation Yrotation
          JOINT b_Spine3
          {
            OFFSET 11.0297 -0.0113 0.0000
            CHANNELS 6 Xposition Yposition Zposition Zrotation Xrotation Yrotation
            JOINT b__Neck
            {
              OFFSET 14.9480 -3.1935 0.0000
              CHANNELS 6 Xposition Yposition Zposition Zrotation Xrotation Yrotation
              JOINT b__Neck1
              {
                OFFSET 5.4958 -0.0043 -0.0000
                CHANNELS 6 Xposition Yposition Zposition Zrotation Xrotation Yrotation
                JOINT b__Neck2
                {
                  OFFSET 5.5266 -0.0049 0.0000
                  CHANNELS 6 Xposition Yposition Zposition Zrotation Xrotation Yrotation
                  JOINT b_Head
                  {
                    OFFSET 6.1093 0.0000 -0.0000
                    CHANNELS 6 Xposition Yposition Zposition Zrotation Xrotation Yrotation
                    JOINT Bip01_HeadNub
                    {
                      OFFSET 28.6688 0.0000 -0.0000
                      CHANNELS 6 Xposition Yposition Zposition Zrotation Xrotation Yrotation
                      End Site
                      {
                        OFFSET 0 0 0
                      }
                    }
                    JOINT Dog_Jaw
                    {
                      OFFSET 0.6075 2.3575 -0.0000
                      CHANNELS 6 Xposition Yposition Zposition Zrotation Xrotation Yrotation
                      End Site
                      {
                        OFFSET 0 0 0
                      }
                    }
                  }
                }
              }
            }
            JOINT b_LeftClav
            {
              OFFSET 10.4683 2.1257 3.5190
              CHANNELS 6 Xposition Yposition Zposition Zrotation Xrotation Yrotation
              JOINT b_LeftArm
              {
                OFFSET 7.3453 0.0000 0.0000
                CHANNELS 6 Xposition Yposition Zposition Zrotation Xrotation Yrotation
                JOINT b_LeftForeArm
                {
                  OFFSET 23.3863 -0.0000 0.0000
                  CHANNELS 6 Xposition Yposition Zposition Zrotation Xrotation Yrotation
                  JOINT b_LeftHand
                  {
                    OFFSET 21.5040 0.0000 0.0000
                    CHANNELS 6 Xposition Yposition Zposition Zrotation Xrotation Yrotation
                    JOINT b__LeftFinger
                    {
                      OFFSET 1.5926 6.2126 -0.0138
                      CHANNELS 6 Xposition Yposition Zposition Zrotation Xrotation Yrotation
                      JOINT Bip01_L_Finger0Nub
                      {
                        OFFSET 23.3657 0.0000 0.0000
                        CHANNELS 6 Xposition Yposition Zposition Zrotation Xrotation Yrotation
                        End Site
                        {
                          OFFSET 0 0 0
                        }
                      }
                    }
                  }
                }
                JOINT Dog_LeftArmor002
                {
                  OFFSET 4.2035 4.4457 12.7354
                  CHANNELS 6 Xposition Yposition Zposition Zrotation Xrotation Yrotation
                  End Site
                  {
                    OFFSET 0 0 0
                  }
                }
              }
            }
            JOINT b_RightClav
            {
              OFFSET 10.4683 2.1257 -3.5189
              CHANNELS 6 Xposition Yposition Zposition Zrotation Xrotation Yrotation
              JOINT b_RightArm
              {
                OFFSET 7.3453 -0.0000 -0.0000
                CHANNELS 6 Xposition Yposition Zposition Zrotation Xrotation Yrotation
                JOINT b_RightForeArm
                {
                  OFFSET 23.3863 0.0000 0.0000
                  CHANNELS 6 Xposition Yposition Zposition Zrotation Xrotation Yrotation
                  JOINT b_RightHand
                  {
                    OFFSET 21.5040 0.0000 0.0000
                    CHANNELS 6 Xposition Yposition Zposition Zrotation Xrotation Yrotation
                    JOINT b_RightFinger
                    {
                      OFFSET 1.5926 6.2126 0.0138
                      CHANNELS 6 Xposition Yposition Zposition Zrotation Xrotation Yrotation
                      JOINT Bip01_R_Finger0Nub
                      {
                        OFFSET 23.3657 0.0000 0.0000
                        CHANNELS 6 Xposition Yposition Zposition Zrotation Xrotation Yrotation
                        End Site
                        {
                          OFFSET 0 0 0
                        }
                      }
                    }
                  }
                }
                JOINT Dog_RightArmor002
                {
                  OFFSET 4.2034 4.4457 -12.7351
                  CHANNELS 6 Xposition Yposition Zposition Zrotation Xrotation Yrotation
                  End Site
                  {
                    OFFSET 0 0 0
                  }
                }
              }
            }
          }
        }
      }
    }
    JOINT b_Tail001
    {
      OFFSET -4.7889 3.8598 0.8608
      CHANNELS 6 Xposition Yposition Zposition Zrotation Xrotation Yrotation
      JOINT b_Tail002
      {
        OFFSET 4.2212 0.0000 -0.0000
        CHANNELS 6 Xposition Yposition Zposition Zrotation Xrotation Yrotation
        JOINT b_Tail003
        {
          OFFSET 4.9750 0.0000 -0.0000
          CHANNELS 6 Xposition Yposition Zposition Zrotation Xrotation Yrotation
          JOINT b_Tail004
          {
            OFFSET 4.7171 -0.0000 0.0000
            CHANNELS 6 Xposition Yposition Zposition Zrotation Xrotation Yrotation
            JOINT b_Tail005
            {
              OFFSET 9.7173 -0.0000 -0.0001
              CHANNELS 6 Xposition Yposition Zposition Zrotation Xrotation Yrotation
              JOINT b_Tail006
              {
                OFFSET 8.2617 0.0001 0.0000
                CHANNELS 6 Xposition Yposition Zposition Zrotation Xrotation Yrotation
                JOINT b_Tail007
                {
                  OFFSET 9.7599 -0.0001 0.0000
                  CHANNELS 6 Xposition Yposition Zposition Zrotation Xrotation Yrotation
                  JOINT b_Tail008
                  {
                    OFFSET 11.1530 0.0000 -0.0000
                    CHANNELS 6 Xposition Yposition Zposition Zrotation Xrotation Yrotation
                    JOINT b_Tail009
                    {
                      OFFSET 10.3039 0.0000 0.0000
                      CHANNELS 6 Xposition Yposition Zposition Zrotation Xrotation Yrotation
                      End Site
                      {
                        OFFSET 0 0 0
                      }
                    }
                  }
                }
              }
            }
          }
        }
      }
    }
    JOINT Dog_LeftTail001
    {
      OFFSET -11.9878 -1.7857 10.1900
      CHANNELS 6 Xposition Yposition Zposition Zrotation Xrotation Yrotation
      JOINT Dog_LeftTail002
      {
        OFFSET 8.4424 0.0000 0.0000
        CHANNELS 6 Xposition Yposition Zposition Zrotation Xrotation Yrotation
        JOINT Dog_LeftTail003
        {
          OFFSET 9.9501 0.0000 -0.0000
          CHANNELS 6 Xposition Yposition Zposition Zrotation Xrotation Yrotation
          JOINT Dog_LeftTail004
          {
            OFFSET 9.4342 0.0000 -0.0000
            CHANNELS 6 Xposition Yposition Zposition Zrotation Xrotation Yrotation
            JOINT Dog_LeftTail005
            {
              OFFSET 9.7173 0.0001 0.0001
              CHANNELS 6 Xposition Yposition Zposition Zrotation Xrotation Yrotation
              JOINT Dog_LeftTail006
              {
                OFFSET 8.2618 -0.0000 -0.0000
                CHANNELS 6 Xposition Yposition Zposition Zrotation Xrotation Yrotation
                JOINT Dog_LeftTail007
                {
                  OFFSET 9.7599 0.0000 0.0000
                  CHANNELS 6 Xposition Yposition Zposition Zrotation Xrotation Yrotation
                  JOINT Dog_LeftTail008
                  {
                    OFFSET 11.1529 -0.0001 -0.0001
                    CHANNELS 6 Xposition Yposition Zposition Zrotation Xrotation Yrotation
                    JOINT Dog_LeftTail009
                    {
                      OFFSET 10.3039 -0.0000 0.0000
                      CHANNELS 6 Xposition Yposition Zposition Zrotation Xrotation Yrotation
                      End Site
                      {
                        OFFSET 0 0 0
                      }
                    }
                  }
                }
              }
            }
          }
        }
      }
    }
    JOINT b_LeftLegUpper
    {
      OFFSET -0.0000 0.0000 9.9422
      CHANNELS 6 Xposition Yposition Zposition Zrotation Xrotation Yrotation
      JOINT b_LeftLeg
      {
        OFFSET 25.9795 0.0000 0.0000
        CHANNELS 6 Xposition Yposition Zposition Zrotation Xrotation Yrotation
        JOINT b_LeftLeg1
        {
          OFFSET 21.2087 0.0000 -0.0000
          CHANNELS 6 Xposition Yposition Zposition Zrotation Xrotation Yrotation
          JOINT b_LeftAnkle
          {
            OFFSET 10.4341 -0.0000 0.0000
            CHANNELS 6 Xposition Yposition Zposition Zrotation Xrotation Yrotation
            JOINT b_LeftToe
            {
              OFFSET 5.6676 6.5983 -0.0000
              CHANNELS 6 Xposition Yposition Zposition Zrotation Xrotation Yrotation
              JOINT Bip01_L_Toe0Nub
              {
                OFFSET 8.6279 -0.0000 0.0000
                CHANNELS 6 Xposition Yposition Zposition Zrotation Xrotation Yrotation
                End Site
                {
                  OFFSET 0 0 0
                }
              }
            }
            JOINT b_LeftToe002
            {
              OFFSET 5.6741 -2.3619 -0.5306
              CHANNELS 6 Xposition Yposition Zposition Zrotation Xrotation Yrotation
              End Site
              {
                OFFSET 0 0 0
              }
            }
          }
        }
      }
      JOINT Dog_LeftArmor001
      {
        OFFSET -2.6287 -3.4254 -3.1462
        CHANNELS 6 Xposition Yposition Zposition Zrotation Xrotation Yrotation
        End Site
        {
          OFFSET 0 0 0
        }
      }
    }
    JOINT b_RightLegUpper
    {
      OFFSET 0.0000 -0.0000 -9.9422
      CHANNELS 6 Xposition Yposition Zposition Zrotation Xrotation Yrotation
      JOINT b_RightLeg
      {
        OFFSET 25.9795 0.0000 0.0000
        CHANNELS 6 Xposition Yposition Zposition Zrotation Xrotation Yrotation
        JOINT b_RightLeg1
        {
          OFFSET 21.2087 0.0000 0.0000
          CHANNELS 6 Xposition Yposition Zposition Zrotation Xrotation Yrotation
          JOINT b_RightAnkle
          {
            OFFSET 10.4341 -0.0000 -0.0000
            CHANNELS 6 Xposition Yposition Zposition Zrotation Xrotation Yrotation
            JOINT b_RightToe
            {
              OFFSET 5.6676 6.5983 -0.0000
              CHANNELS 6 Xposition Yposition Zposition Zrotation Xrotation Yrotation
              JOINT Bip01_R_Toe0Nub
              {
                OFFSET 8.6279 -0.0000 0.0000
                CHANNELS 6 Xposition Yposition Zposition Zrotation Xrotation Yrotation
                End Site
                {
                  OFFSET 0 0 0
                }
              }
            }
            JOINT b_RightToe002
            {
              OFFSET 5.6741 -2.3620 0.5304
              CHANNELS 6 Xposition Yposition Zposition Zrotation Xrotation Yrotation
              End Site
              {
                OFFSET 0 0 0
              }
            }
          }
        }
      }
      JOINT Dog_RightArmor001
      {
        OFFSET -2.6288 -3.4254 3.1460
        CHANNELS 6 Xposition Yposition Zposition Zrotation Xrotation Yrotation
        End Site
        {
          OFFSET 0 0 0
        }
      }
    }
  }
}
MOTION
Frames: 4
Frame Time: 0.03333333
-62.5553 56.6087 251.446 85.3917 10.4456 -165.377 53.2821 -6.35e-05 8.19533 -90 -81.2558 -180 0 0 0 -89.9999 -4.1675e-14 -90 10.4409 -1.622 1.78e-05 -9.71061 1.89907 0.973178 8.8514 -0.0089989 0 -1.06406 3.96497 4.00919 11.3035 -0.0087814 -1.42109e-14 -0.8741 5.80351 0.483839 11.0297 -0.0113029 1.42109e-14 2.03763 3.9421 -3.77478 14.948 -3.19349 8.6e-06 -29.1705 -47.6192 -6.07817 5.49578 -0.0042877 -3.55271e-15 7.66246 8.90749 13.7149 5.52657 -0.0048637 7.10543e-15 -2.21136 7.84316 -0.575256 6.10934 0 7.10543e-15 35.895 -0.320917 8.35061 28.6688 0 0 -0 1.59028e-15 -0 0.607494 2.35752 -7.6e-06 -156.427 -0.000147608 180 10.4683 2.1257 3.51896 -162.52 22.447 -97.1538 7.34534 -1.42109e-14 1.9e-06 -42.2724 -84.3507 46.7286 23.3863 -1.9e-06 1e-06 3.54131 -0.689741 -1.20141 21.504 -2.84217e-14 0 -74.9654 -5.54101 2.06017 1.59262 6.21256 -0.0138378 14.0484 -14.1438 -5.65102 23.3657 0 1e-06 3.18055e-15 0 -3.18055e-15 4.20345 4.44573 12.7354 172.377 0.21838 -87.1877 10.4683 2.12572 -3.51895 170.867 12.0813 103.374 7.34534 0 -1.9e-06 100.201 82.3028 176.788 23.3863 1.9e-06 0 -29.0044 -1.59028e-15 7.15625e-15 21.504 3.8e-06 1e-06 -88.6545 -12.5845 11.2126 1.59262 6.21257 0.0138388 -3.34135 2.54851 -0.149434 23.3657 0 1e-06 180 -2.74323e-14 -7.95139e-16 4.20337 4.4457 -12.7351 172.377 -0.218352 87.1876 -4.78895 3.85983 0.86083 170.373 10.555 23.309 4.22117 3.815e-05 -5.7e-06 -20.3891 -14.7675 4.14813 4.97505 3.8e-06 -6.7e-06 -38.1542 -10.8061 7.17653 4.7171 -1.145e-05 2.86e-05 3.18055e-15 6.36111e-15 -3.18055e-15 9.71734 -4.2e-05 -5.72e-05 4.77083e-15 6.36111e-15 6.36111e-15 8.26175 8.01e-05 5.7e-06 7.95139e-15 -6.36111e-15 -0 9.75986 -6.48e-05 2.86e-05 6.36111e-15 0 -6.36111e-15 11.153 2.67e-05 -2.1e-05 1.76556e-31 3.18055e-15 -3.18055e-15 10.3039 1.14e-05 4.2e-05 4.77083e-15 0 -6.36111e-15 -11.9878 -1.78568 10.19 170.606 3.62573 1.11034 8.44238 1.53e-05 4.2e-05 -7.95139e-16 -1.98785e-16 -3.18055e-15 9.95005 7.6e-06 -2.86e-05 -7.95139e-16 0 -1.59028e-15 9.43418 1.42109e-14 -4.58e-05 -0 0 1.59028e-15 9.71733 6.87e-05 0.0001106 -0 0 -0 8.26175 -2.29e-05 -4.77e-05 -1.10348e-32 -1.98785e-16 -3.18055e-15 9.75994 2.86e-05 3.05e-05 -7.95139e-16 -1.98785e-16 1.59028e-15 11.1529 -7.25e-05 -5.91e-05 -0 0 1.59028e-15 10.3039 -7.6e-06 0 7.95139e-16 -1.98785e-16 1.59028e-15 -1.14e-05 1.53e-05 9.94222 -111.529 11.2781 -174.47 25.9795 1e-06 0 -57.9628 0.129581 -1.20377 21.2087 1.9e-06 -1e-06 63.118 13.3737 -16.1013 10.4341 -1.9e-06 1e-06 -10.9009 -2.52923 4.5302 5.66763 6.59832 -2.84217e-14 95.7875 31.6984 -19.9092 8.62785 0 0 -180 -3.21646e-13 -3.18055e-15 5.67414 -2.36194 -0.530567 -75.8081 4.38708 5.33411 -2.62874 -3.42539 -3.14618 29.7499 1.82752 90.2264 1.53e-05 -1.53e-05 -9.94222 -116.242 -21.8792 175.936 25.9795 0 1e-06 -31.263 0.102263 2.59536 21.2087 -2.84217e-14 1.9e-06 66.8048 -15.6375 16.7493 10.4341 -1.9e-06 -1e-06 -10.099 -0.585049 -7.00972 5.66763 6.59831 0 83.7521 -1.65539 0.453408 8.62785 0 -1.42109e-14 -6.36111e-15 3.97569e-16 -7.95139e-16 5.67412 -2.36198 0.530356 -75.808 -4.38692 -5.33418 -2.62878 -3.42545 3.14601 29.7498 -1.82753 -90.2266
-64.1596 57.1269 245.297 87.398 5.06972 -165.005 53.2821 -6.35e-05 8.19533 -90 -81.2558 -180 0 0 0 -89.9999 -5.43972e-14 -90 10.4409 -1.622 1.78e-05 -9.04467 2.18235 -0.778605 8.8514 -0.0089989 1.42109e-14 -1.22936 5.39715 0.928316 11.3035 -0.0087814 1.42109e-14 -0.948162 5.31449 -1.15385 11.0297 -0.0113029 0 1.93868 3.42496 -3.78886 14.948 -3.19349 8.6e-06 -28.8252 -51.3127 -3.74895 5.49578 -0.0042877 0 8.8405 9.49963 12.9207 5.52657 -0.0048637 -7.10543e-15 -2.28429 8.74175 -0.605844 6.10934 0 7.10543e-15 35.9552 -0.366374 9.07431 28.6688 0 7.10543e-15 -3.18055e-15 -7.95139e-16 3.18055e-15 0.607494 2.35752 -7.6e-06 -156.427 -0.000147608 180 10.4683 2.1257 3.51896 -162.767 18.9042 -100.257 7.34534 -1.42109e-14 1.9e-06 13.1034 -86.6531 103.696 23.3863 -1.9e-06 1e-06 3.08624 -0.680176 -1.20685 21.504 -2.84217e-14 0 -53.7047 -4.42038 3.92743 1.59262 6.21256 -0.0138378 16.5758 -23.0934 -7.75505 23.3657 0 1e-06 -7.95139e-16 3.18055e-15 7.95139e-16 4.20345 4.44573 12.7354 172.377 0.21838 -87.1877 10.4683 2.12572 -3.51895 169.56 14.6721 106.066 7.34534 -7.10543e-15 -1.9e-06 64.3496 84.7801 -150.478 23.3863 1.9e-06 0 -20.7542 6.36111e-15 -1.59028e-15 21.504 3.8e-06 1e-06 -102.368 -15.6936 14.3897 1.59262 6.21257 0.0138388 -5.7641 6.23108 0.700144 23.3657 -1.42109e-14 1e-06 180 0 -1.39149e-15 4.20337 4.4457 -12.7351 172.377 -0.218352 87.1876 -4.78895 3.85983 0.86083 170.639 9.94518 19.4073 4.22117 3.815e-05 -5.7e-06 -21.0767 -18.9065 0.573116 4.97505 3.8e-06 -6.7e-06 -37.6683 -10.7811 7.06263 4.7171 -1.145e-05 2.86e-05 -9.54166e-15 3.18055e-15 3.18055e-15 9.71734 -4.2e-05 -5.72e-05 -3.18055e-15 -3.18055e-15 -0 8.26175 8.01e-05 5.7e-06 6.36111e-15 0 -0 9.75986 -6.48e-05 2.86e-05 6.36111e-15 3.18055e-15 3.18055e-15 11.153 2.67e-05 -2.1e-05 6.36111e-15 -3.18055e-15 6.36111e-15 10.3039 1.14e-05 4.2e-05 6.36111e-15 -3.18055e-15 3.18055e-15 -11.9878 -1.78568 10.19 170.606 3.62573 1.11034 8.44238 1.53e-05 4.2e-05 7.95139e-16 -9.93923e-17 -7.95139e-16 9.95005 7.6e-06 -2.86e-05 -5.51738e-33 -1.98785e-16 -1.59028e-15 9.43418 7.10543e-15 -4.58e-05 7.95139e-16 0 -7.95139e-16 9.71733 6.87e-05 0.0001106 -1.59028e-15 -9.93923e-17 -7.95139e-16 8.26175 -2.29e-05 -4.77e-05 1.59028e-15 -9.93923e-17 -0 9.75994 2.86e-05 3.05e-05 -0 -3.97569e-16 -0 11.1529 -7.25e-05 -5.91e-05 7.95139e-16 -9.93923e-17 -0 10.3039 -7.6e-06 0 7.95139e-16 -1.98785e-16 -7.95139e-16 -1.14e-05 1.53e-05 9.94222 -118.416 11.4485 -174.903 25.9795 1e-06 0 -57.7459 0.125023 -1.20425 21.2087 1.9e-06 -1e-06 73.5128 10.8376 -16.0644 10.4341 -1.9e-06 1e-06 -12.3314 -2.64165 4.46567 5.66763 6.59832 0 91.5017 27.5419 -15.6985 8.62785 -3.55271e-15 -7.10543e-15 -180 1.89839e-13 7.95139e-16 5.67414 -2.36194 -0.530567 -75.8081 4.38708 5.33411 -2.62874 -3.42539 -3.14618 29.7499 1.82752 90.2264 1.53e-05 -1.53e-05 -9.94222 -114.297 -19.5607 176.077 25.9795 0 1e-06 -36.3991 -0.130647 2.59409 21.2087 2.84217e-14 1.9e-06 63.5729 -18.0555 18.7106 10.4341 -1.9e-06 -1e-06 -10.4518 1.83845 -6.89637 5.66763 6.59831 0 83.9042 -1.36428 0.361481 8.62785 0 0 -3.18055e-15 -5.96354e-16 -0 5.67412 -2.36198 0.530355 -75.808 -4.38692 -5.33418 -2.62878 -3.42545 3.14601 29.7498 -1.82753 -90.2266
-65.6389 58.0271 238.557 88.706 0.563862 -162.587 53.2821 -6.35e-05 8.19533 -90 -81.2558 -180 0 0 0 -89.9999 -4.1675e-14 -90 10.4409 -1.622 1.78e-05 -9.75556 1.18172 -2.82709 8.8514 -0.0089989 0 -1.52877 5.67445 -1.61882 11.3035 -0.0087814 0 -0.989239 4.28493 -2.42635 11.0297 -0.0113029 0 1.75375 2.56064 -3.09635 14.948 -3.19349 8.6e-06 -30.5289 -44.0086 -7.44748 5.49578 -0.0042877 0 11.8432 6.56479 21.8136 5.52657 -0.0048637 1.42109e-14 -2.28423 7.70395 -0.98475 6.10934 0 -7.10543e-15 35.987 -2.01999 11.7307 28.6688 -7.10543e-15 0 3.18055e-15 3.18055e-15 3.18055e-15 0.607494 2.35752 -7.6e-06 -156.427 -0.000147608 180 10.4683 2.1257 3.51896 -165.067 6.53797 -106.78 7.34534 -7.10543e-15 1.9e-06 78.8195 -71.5784 178.289 23.3863 -1.9e-06 1e-06 -12.1356 -0.339405 -1.34309 21.504 0 0 -6.11313 -0.0740241 5.91002 1.59262 6.21256 -0.0138378 5.20462 -27.2542 -4.71268 23.3657 -1.42109e-14 1e-06 -1.59028e-15 6.36111e-15 1.59028e-15 4.20345 4.44573 12.7354 172.377 0.21838 -87.1877 10.4683 2.12572 -3.51895 172.8 14.9425 106.551 7.34534 -7.10543e-15 -1.9e-06 34.8702 78.3865 -126.329 23.3863 1.9e-06 1.42109e-14 -27.2078 0 7.15625e-15 21.504 3.8e-06 1e-06 -110.414 -20.713 10.9859 1.59262 6.21257 0.0138388 -14.4721 -0.297712 3.01003 23.3657 2.84217e-14 1e-06 180 -2.3059e-14 9.93923e-15 4.20337 4.4457 -12.7351 172.377 -0.218352 87.1876 -4.78895 3.85983 0.86083 175.032 9.76561 13.7004 4.22117 3.815e-05 -5.7e-06 -19.4386 -19.9782 -1.41429 4.97505 3.8e-06 -6.7e-06 -35.5022 -10.3189 6.78108 4.7171 -1.145e-05 2.86e-05 -3.18055e-15 0 6.36111e-15 9.71734 -4.2e-05 -5.72e-05 -9.54166e-15 7.95139e-15 3.18055e-15 8.26175 8.01e-05 5.7e-06 -2.64834e-31 -4.77083e-15 -3.18055e-15 9.75986 -6.48e-05 2.86e-05 -3.18055e-15 7.95139e-15 3.18055e-15 11.153 2.67e-05 -2.1e-05 6.36111e-15 -4.77083e-15 -3.18055e-15 10.3039 1.14e-05 4.2e-05 -3.18055e-15 7.95139e-15 3.18055e-15 -11.9878 -1.78568 10.19 170.606 3.62573 1.11034 8.44238 1.53e-05 4.2e-05 2.06902e-33 1.49089e-16 -7.95139e-16 9.95005 7.6e-06 -2.86e-05 -1.59028e-15 4.96962e-17 3.97569e-16 9.43418 -2.13163e-14 -4.58e-05 -0 -7.45443e-16 -0 9.71733 6.87e-05 0.0001106 -1.59028e-15 -3.47873e-16 -7.95139e-16 8.26175 -2.29e-05 -4.77e-05 -1.59028e-15 -4.96962e-16 -0 9.75994 2.86e-05 3.05e-05 -1.59028e-15 -1.98785e-16 3.97569e-16 11.1529 -7.25e-05 -5.91e-05 -3.10353e-33 4.47266e-16 3.97569e-16 10.3039 -7.6e-06 -1.42109e-14 -9.65542e-33 -1.39149e-15 -3.97569e-16 -1.14e-05 1.53e-05 9.94222 -124.763 13.1428 -175.237 25.9795 1e-06 -2.84217e-14 -49.1484 -0.0564363 -1.20941 21.2087 1.9e-06 -1e-06 71.4626 10.4286 -16.4803 10.4341 -1.9e-06 1e-06 -14.2844 -2.79243 4.37308 5.66763 6.59832 -1.42109e-14 87.3663 20.9849 -10.07 8.62785 -1.42109e-14 1.42109e-14 -180 -7.48921e-14 2.38542e-15 5.67414 -2.36194 -0.530567 -75.8081 4.38708 5.33411 -2.62874 -3.42539 -3.14618 29.7499 1.82752 90.2264 1.53e-05 -1.53e-05 -9.94222 -112.335 -17.1039 175.684 25.9795 -2.84217e-14 1e-06 -36.785 -0.148129 2.59315 21.2087 0 1.9e-06 56.4364 -21.2025 19.2546 10.4341 -1.9e-06 -1e-06 -9.96063 3.55263 -6.26027 5.66763 6.59831 0 85.2214 -1.35797 0.48966 8.62785 3.55271e-15 0 -7.95139e-16 7.95139e-16 -7.95139e-16 5.67412 -2.36198 0.530355 -75.808 -4.38692 -5.33418 -2.62878 -3.42545 3.14601 29.7498 -1.82753 -90.2266
-66.7767 58.9614 231.293 88.93 -2.34931 -159.92 53.2821 -6.35e-05 8.19533 -90 -81.2558 -180 0 0 0 -89.9999 -4.1675e-14 -90 10.4409 -1.622 1.78e-05 -10.8008 -0.508859 -4.86851 8.8514 -0.0089989 -1.42109e-14 -2.1057 4.52812 -3.32708 11.3035 -0.0087814 0 -1.18121 3.51218 -3.00726 11.0297 -0.0113029 0 1.24832 2.09604 -1.75633 14.948 -3.19349 8.6e-06 -30.3727 -30.0454 -15.8458 5.49578 -0.0042877 1.42109e-14 14.4702 1.81553 40.1308 5.52657 -0.0048637 0 -2.28047 4.69571 -1.2463 6.10934 0 0 35.7564 -4.1081 14.2863 28.6688 7.10543e-15 0 -3.18055e-15 -3.18055e-15 -9.54166e-15 0.607494 2.35752 -7.6e-06 -156.427 -0.000147608 180 10.4683 2.1257 3.51896 -170.062 1.61477 -107.689 7.34534 0 1.9e-06 73.8969 -66.9226 177.436 23.3863 -1.9e-06 1e-06 -34.3359 0.193333 -1.37175 21.504 0 2.84217e-14 23.5667 2.87008 5.16903 1.59262 6.21256 -0.0138378 1.58127 -16.462 1.82371 23.3657 -1.42109e-14 1e-06 -0 0 -7.95139e-16 4.20345 4.44573 12.7354 172.377 0.21838 -87.1877 10.4683 2.12572 -3.51895 177.406 12.5671 99.2667 7.34534 0 -1.9e-06 -4.8282 77.1327 -88.0468 23.3863 1.9e-06 2.84217e-14 -28.1946 3.18055e-15 3.97569e-16 21.504 3.8e-06 1e-06 -119.506 -22.4517 7.17558 1.59262 6.21257 0.0138388 -19.4009 -5.67575 3.57859 23.3657 0 1e-06 180 9.54166e-15 1.59028e-14 4.20337 4.4457 -12.7351 172.377 -0.218352 87.1876 -4.78895 3.85983 0.86083 -179.482 9.66974 6.49972 4.22117 3.815e-05 -5.7e-06 -19.6641 -19.2825 -3.83769 4.97505 3.8e-06 -6.7e-06 -33.7114 -10.0737 6.35004 4.7171 -1.145e-05 2.86e-05 6.36111e-15 7.95139e-16 -3.18055e-15 9.71734 -4.2e-05 -5.72e-05 4.41391e-32 1.59028e-15 -1.59028e-15 8.26175 8.01e-05 5.7e-06 3.18055e-15 -2.38542e-15 -1.59028e-15 9.75986 -6.48e-05 2.86e-05 3.18055e-15 -1.59028e-15 1.59028e-15 11.153 2.67e-05 -2.1e-05 -3.18055e-15 7.95139e-16 -1.59028e-15 10.3039 1.14e-05 4.2e-05 -3.18055e-15 -5.56597e-15 -0 -11.9878 -1.78568 10.19 170.606 3.62573 1.11034 8.44238 1.53e-05 4.2e-05 1.59028e-15 3.35449e-16 -9.93923e-17 9.95005 7.6e-06 -2.86e-05 1.59028e-15 -8.07563e-16 2.98177e-16 9.43418 7.10543e-15 -4.58e-05 1.59028e-15 -8.07563e-16 1.98785e-16 9.71733 6.87e-05 0.0001106 2.75869e-33 -7.95139e-16 1.98785e-16 8.26175 -2.29e-05 -4.77e-05 -0 0 9.93923e-17 9.75994 2.86e-05 3.05e-05 -0 -3.72721e-17 -0 11.1529 -7.25e-05 -5.91e-05 -0 3.47873e-16 -0 10.3039 -7.6e-06 0 1.59028e-15 -7.45443e-17 -9.93923e-17 -1.14e-05 1.53e-05 9.94222 -127.718 15.6246 -176.807 25.9795 1e-06 -1.42109e-14 -32.7117 -0.396382 -1.14401 21.2087 1.9e-06 -1e-06 63.2721 14.1979 -17.8081 10.4341 -1.9e-06 1e-06 -12.1684 -2.62892 4.47317 5.66763 6.59832 0 91.3696 20.1483 -10.4793 8.62785 0 0 -180 -2.85753e-14 2.18663e-15 5.67414 -2.36194 -0.530567 -75.8081 4.38708 5.33411 -2.62874 -3.42539 -3.14618 29.7499 1.82752 90.2264 1.53e-05 -1.53e-05 -9.94222 -109.31 -16.052 174.21 25.9795 2.84217e-14 1e-06 -33.5758 -0.0026281 2.59737 21.2087 2.84217e-14 1.9e-06 48.9422 -26.2741 19.932 10.4341 -1.9e-06 -1e-06 -9.58881 3.96483 -5.82461 5.66763 6.59831 0 88.6648 -2.47499 1.35719 8.62785 -4.44089e-16 1.42109e-14 -4.96962e-17 -1.27346e-16 -1.59028e-15 5.67412 -2.36198 0.530355 -75.808 -4.38692 -5.33418 -2.62878 -3.42545 3.14601 29.7498 -1.82753 -90.2266
